# xmcd
#
# Track frame offsets:
#	183
#	13975
#	24570
#	37103
#	54895
#	75080
#	85933
#	99865
#	111323
#	123210
#	137160
#	150535
#
# Disc length: 2284 seconds
#
# Revision: 0
# Processed by: cddbd v1.4PL0 Copyright (c) Steve Scherf et al.
# Submitted via: audiograbber 1.81.01
#
DISCID=8808ea0c
DTITLE=Santo E Johnny - I Grandi Successi Originali cd2
DYEAR=1900
DGENRE=pop
TTITLE0=Harmony
TTITLE1=I left my heart in s. francisco
TTITLE2=It happens every day
TTITLE3=Indian love call
TTITLE4=Raindrop keeps fallin' on my head
TTITLE5=Sleep walk
TTITLE6=Thè look of love
TTITLE7=Thè shadow of your smile
TTITLE8=Thè enchanted sea
TTITLE9=Love theme from the godfather
TTITLE10=Spanish eyes
TTITLE11=Ruby
EXTD=
EXTT0=
EXTT1=
EXTT2=
EXTT3=
EXTT4=
EXTT5=
EXTT6=
EXTT7=
EXTT8=
EXTT9=
EXTT10=
EXTT11=
PLAYORDER=
